PathFileType	4	(X/Y/Z)	S1_nor_slow_left.trc
DataRate	CameraRate	NumFrames	NumMarkers	Units	OrigDataRate	OrigDataStartFrame	OrigNumFrames
250.00	250.00	8	18	mm	250.00	9243	12323
Frame#	Time	c7	r_should	l_should	clavicle	r_upa	r_elb_l	r_elb_m	r_low	r_wri_l	r_wri_m	r_met	l_upa	l_elb_l	l_elb_m	l_low	l_wri_l	l_wri_m	l_met
	X1	Y1	Z1	X2	Y2	Z2	X3	Y3	Z3	X4	Y4	Z4	X5	Y5	Z5	X6	Y6	Z6	X7	Y7	Z7	X8	Y8	Z8	X9	Y9	Z9	X10	Y10	Z10	X11	Y11	Z11	X12	Y12	Z12	X13	Y13	Z13	X14	Y14	Z14	X15	Y15	Z15	X16	Y16	Z16	X17	Y17	Z17	X18	Y18	Z18
9243	36.96800	880.73444	1423.24756	78.67023	936.70557	1359.61438	268.66681	935.96454	1343.11389	-106.91827	1010.67328	1295.81189	78.94945	909.53925	1165.13611	344.98169	923.68945	1067.16101	363.47333	853.70380	1040.03357	295.06754	904.80914	935.47040	382.35849	1003.14709	869.66241	353.04483	938.21063	838.82184	368.13284	1054.38586	797.13318	371.95029	929.71667	1118.68616	-130.15860	935.81409	1038.19690	-143.29591	909.59167	1007.29431	-46.70455	946.54523	889.59540	-117.25893	1034.80249	832.24927	-144.68164	1003.93555	807.17371	-85.77966	1050.52661	761.47876	-167.00153
9244	36.97200	880.77271	1423.22900	78.54520	936.71625	1359.65271	268.58704	936.06390	1342.99036	-106.98555	1010.71381	1295.79688	78.91470	909.56305	1165.20349	344.96994	923.70386	1067.22144	363.47375	853.69781	1040.08167	295.09363	904.83905	935.53210	382.38666	1003.15717	869.71991	353.03387	938.22601	838.87518	368.16672	1054.39380	797.18341	371.93353	930.08032	1118.55261	-130.15462	936.23358	1037.97363	-143.32481	909.87836	1007.09760	-46.72305	946.34723	889.26575	-117.26987	1034.28552	831.46857	-144.71117	1003.29877	806.51385	-85.83777	1049.69983	760.61725	-167.07808
9245	36.97600	880.81445	1423.21509	78.43233	936.71893	1359.69373	268.51129	936.16437	1342.88086	-107.06077	1010.75281	1295.77441	78.87392	909.57867	1165.25903	344.95871	923.71246	1067.27881	363.46719	853.69330	1040.12964	295.12341	904.86407	935.58838	382.41223	1003.16492	869.77924	353.03250	938.22491	838.95770	368.19434	1054.40088	797.23682	371.91370	930.45691	1118.41833	-130.14284	936.64899	1037.75269	-143.34019	910.08533	1006.90845	-46.74769	946.15808	888.94525	-117.27129	1033.79016	830.70496	-144.74673	1002.67194	805.85742	-85.89354	1048.83142	759.77185	-167.14026
9246	36.98000	880.85809	1423.19189	78.31454	936.71930	1359.72949	268.42923	936.25720	1342.77344	-107.13530	1010.78833	1295.75110	78.81920	909.59467	1165.31665	344.93976	923.72491	1067.33777	363.45276	853.69183	1040.16870	295.13663	904.88599	935.64783	382.43842	1003.16632	869.83923	353.03534	938.20068	839.07019	368.21732	1054.40588	797.29810	371.89951	930.82538	1118.28491	-130.12776	937.07349	1037.53748	-143.34622	910.31000	1006.73199	-46.76931	945.98071	888.64124	-117.28012	1033.29065	829.92627	-144.79037	1002.06433	805.23059	-85.94583	1047.95496	758.94940	-167.20033
9247	36.98400	880.89838	1423.18201	78.18819	936.71503	1359.76184	268.33868	936.34454	1342.66956	-107.22137	1010.83099	1295.73950	78.77111	909.61316	1165.37817	344.92880	923.73376	1067.40210	363.44803	853.68201	1040.21570	295.15228	904.90582	935.71155	382.46173	1003.16907	869.90094	353.04202	938.19446	839.15039	368.25192	1054.42603	797.35840	371.89334	931.18640	1118.16235	-130.11423	937.51984	1037.33044	-143.33623	910.61041	1006.56030	-46.76072	945.81506	888.34387	-117.28645	1032.79163	829.14734	-144.82831	1001.45032	804.63373	-85.99464	1047.12451	758.12073	-167.25818
9248	36.98800	880.94183	1423.16687	78.05560	936.70795	1359.79797	268.24869	936.43988	1342.57288	-107.30951	1010.86877	1295.73181	78.71354	909.62384	1165.43359	344.91418	923.74133	1067.47180	363.44290	853.67334	1040.26050	295.17825	904.92023	935.77576	382.47681	1003.17169	869.96930	353.05014	938.19135	839.23822	368.28802	1054.44397	797.41083	371.88757	931.55664	1118.04346	-130.10120	937.97363	1037.12109	-143.33099	910.88928	1006.42657	-46.74947	945.65021	888.06500	-117.29620	1032.30261	828.41406	-144.86238	1000.83624	804.03229	-86.01233	1046.28564	757.28064	-167.29736
9249	36.99200	880.98163	1423.14746	77.91469	936.70892	1359.83374	268.15945	936.53687	1342.47668	-107.39648	1010.90552	1295.72437	78.65733	909.62567	1165.49084	344.88995	923.74792	1067.53967	363.42877	853.67114	1040.30640	295.18600	904.93390	935.84064	382.48859	1003.17261	870.03137	353.05154	938.18317	839.32336	368.31976	1054.45142	797.47736	371.89322	931.93103	1117.92236	-130.08650	938.40240	1036.92053	-143.34999	911.14771	1006.30603	-46.76312	945.47894	887.80597	-117.30527	1031.80164	827.70026	-144.89990	1000.23016	803.45825	-86.04298	1045.43408	756.49402	-167.35345
9250	36.99600	881.02051	1423.12000	77.80048	936.71283	1359.86938	268.07700	936.62903	1342.38672	-107.47980	1010.94006	1295.71545	78.59434	909.63104	1165.54919	344.85507	923.74536	1067.60962	363.41541	853.66858	1040.35425	295.18729	904.94330	935.91180	382.49915	1003.17480	870.09821	353.06079	938.18127	839.39563	368.34811	1054.45764	797.55273	371.91068	932.29474	1117.80273	-130.07260	938.82239	1036.73523	-143.37569	911.38318	1006.21411	-46.77824	945.30591	887.55249	-117.31379	1031.29456	826.98242	-144.93448	999.62793	802.89246	-86.09442	1044.57092	755.74091	-167.40521
